<?xml version="1.0" standalone="no"?>
<!DOCTYPE svg PUBLIC "-//W3C//DTD SVG 20010904//EN"
 "http://www.w3.org/TR/2001/REC-SVG-20010904/DTD/svg10.dtd">
<svg version="1.0" xmlns="http://www.w3.org/2000/svg"
 width="64.000000pt" height="64.000000pt" viewBox="0 0 64.000000 64.000000"
 preserveAspectRatio="xMidYMid meet">

<g transform="translate(0.000000,64.000000) scale(0.100000,-0.100000)"
fill="#000000" stroke="none">
<path d="M34 606 l-34 -34 0 -252 0 -252 34 -34 34 -34 251 0 251 0 32 29 33
29 0 262 0 262 -33 29 -32 29 -251 0 -251 0 -34 -34z m375 -58 c18 -6 52 -27
74 -47 87 -78 112 -206 61 -309 -23 -46 -85 -112 -106 -112 -8 0 -48 74 -48
89 0 6 11 22 24 36 49 53 46 132 -7 183 -88 85 -217 25 -217 -100 0 -38 6 -54
30 -81 l30 -35 -20 -46 c-12 -25 -25 -46 -30 -46 -6 0 -28 16 -49 35 -108 98
-113 270 -10 373 72 73 160 93 268 60z"/>
</g>
</svg>
